<?xml version="1.0" encoding="utf-8"?>
<!-- Generator: Adobe Illustrator 16.0.0, SVG Export Plug-In . SVG Version: 6.00 Build 0)  -->
<!DOCTYPE svg PUBLIC "-//W3C//DTD SVG 1.1//EN" "http://www.w3.org/Graphics/SVG/1.1/DTD/svg11.dtd">
<svg version="1.1" id="Layer_1" xmlns="http://www.w3.org/2000/svg" xmlns:xlink="http://www.w3.org/1999/xlink" x="0px" y="0px"
	 width="124px" height="100px" viewBox="0 0 124 100" enable-background="new 0 0 124 100" xml:space="preserve">
<g>
	<path fill="#00A1DF" d="M94.24,82.729c0.124-0.13,0.215-0.321,0.215-0.513s-0.086-0.372-0.215-0.507l-6.142-6.158
		c-0.151-0.13-0.32-0.203-0.529-0.203c-0.18,0-0.326,0.063-0.467,0.186c-6.643,5.968-15.307,9.255-24.409,9.255
		c-9.08,0-17.744-3.287-24.392-9.255c-0.13-0.123-0.282-0.186-0.474-0.186c-0.202,0-0.372,0.073-0.512,0.203l-6.152,6.158
		c-0.13,0.135-0.203,0.315-0.203,0.507s0.073,0.383,0.209,0.513c8.495,8.247,19.686,12.79,31.524,12.79
		C74.555,95.52,85.745,90.977,94.24,82.729 M94.24,17.8c0.124,0.135,0.215,0.32,0.215,0.506c0,0.198-0.086,0.383-0.215,0.518
		l-6.142,6.148c-0.151,0.141-0.32,0.208-0.529,0.208c-0.18,0-0.326-0.067-0.467-0.18c-6.643-5.974-15.307-9.261-24.409-9.261
		c-9.08,0-17.744,3.287-24.392,9.261c-0.13,0.112-0.282,0.18-0.474,0.18c-0.202,0-0.372-0.067-0.512-0.208l-6.152-6.148
		c-0.13-0.134-0.203-0.32-0.203-0.518c0-0.186,0.073-0.371,0.209-0.506C39.664,9.547,50.854,5.003,62.693,5.003
		C74.555,5.003,85.745,9.547,94.24,17.8"/>
	<path fill="#FFFFFF" d="M109.309,49.806h2.896v-9.229l6.272,9.229h2.874V35.732h-2.874v9.269l-6.272-9.269h-2.896V49.806z
		 M95.618,42.729c0-2.814,1.729-4.684,4.201-4.684c2.493,0,4.223,1.87,4.223,4.684c0,2.875-1.749,4.745-4.223,4.745
		C97.366,47.473,95.618,45.604,95.618,42.729 M92.521,42.729c0,4.262,3.036,7.318,7.298,7.318c4.283,0,7.298-3.057,7.298-7.318
		c0-4.223-3.015-7.238-7.298-7.238C95.558,35.491,92.521,38.506,92.521,42.729 M87.295,49.806h3.056V35.732h-3.056V49.806z
		 M77.725,49.806h3.037V38.427h4.664v-2.694H73.081v2.694h4.644V49.806z M66.829,39.109h0.04l1.89,5.71h-3.8L66.829,39.109z
		 M60.054,49.806h3.276l0.864-2.634h5.349l0.885,2.634h3.257l-5.087-14.073h-3.457L60.054,49.806z M50.262,42.326v-4.161h3.116
		c1.569,0,2.373,0.844,2.373,2.07c0,1.187-0.784,2.091-2.392,2.091H50.262z M47.207,49.806h3.056v-5.248h3.217l2.171,5.248h3.277
		l-2.694-5.73c1.749-0.743,2.573-2.23,2.573-3.88c0-2.251-1.387-4.463-5.408-4.463h-6.192V49.806z M34.461,49.806h10.334v-2.654
		h-7.298v-3.317h6.433v-2.352h-6.433v-3.096h7.217v-2.654H34.461V49.806z M23.906,42.326v-4.161h2.835
		c1.608,0,2.392,0.864,2.392,2.07c0,1.187-0.764,2.091-2.412,2.091H23.906z M20.851,49.806h3.056v-5.106h2.855
		c4,0,5.408-2.272,5.408-4.504c0-2.251-1.388-4.463-5.429-4.463h-5.891V49.806z M7.159,42.729c0-2.814,1.729-4.684,4.202-4.684
		c2.492,0,4.222,1.87,4.222,4.684c0,2.875-1.749,4.745-4.222,4.745C8.908,47.473,7.159,45.604,7.159,42.729 M4.063,42.729
		c0,4.262,3.035,7.318,7.298,7.318c4.282,0,7.297-3.057,7.297-7.318c0-4.223-3.016-7.238-7.297-7.238
		C7.099,35.491,4.063,38.506,4.063,42.729"/>
	<path fill="#FFFFFF" d="M84.802,66.466h3.036V55.088h4.663v-2.695H80.158v2.695h4.644V66.466z M66.688,66.466h3.057v-5.829h5.488
		v5.829h3.035V52.393h-3.035v5.63h-5.488v-5.63h-3.057V66.466z M51.429,59.35c0,4.322,2.854,7.358,7.317,7.358
		c2.091,0,3.921-0.604,5.328-1.629v-6.433h-5.951v2.07H61.3v2.814c-0.644,0.383-1.508,0.604-2.453,0.604
		c-2.714,0-4.322-1.87-4.322-4.785c0-2.674,1.689-4.624,4.322-4.624c1.368,0,2.493,0.482,3.519,1.206l1.588-2.051
		c-1.427-1.045-3.075-1.729-5.187-1.729C54.283,52.152,51.429,55.289,51.429,59.35 M46.202,66.466h3.056V52.393h-3.056V66.466z
		 M32.913,65.159c1.347,0.845,3.498,1.549,5.609,1.549c3.619,0,5.428-1.851,5.428-4.222c0-5.429-7.6-3.599-7.6-6.193
		c0-0.844,0.805-1.487,2.151-1.487c1.246,0,2.553,0.302,3.799,0.926l1.126-2.394c-1.568-0.744-3.217-1.186-5.066-1.186
		c-3.257,0-5.167,1.87-5.167,4.182c0,5.327,7.6,3.559,7.6,6.192c0,0.904-0.784,1.528-2.292,1.528c-1.407,0-2.896-0.523-4.142-1.268
		L32.913,65.159z"/>
</g>
</svg>
