<?xml version="1.0" encoding="utf-8"?>
<!-- Generator: Adobe Illustrator 16.0.0, SVG Export Plug-In . SVG Version: 6.00 Build 0)  -->
<!DOCTYPE svg PUBLIC "-//W3C//DTD SVG 1.1//EN" "http://www.w3.org/Graphics/SVG/1.1/DTD/svg11.dtd">
<svg version="1.1" id="Layer_1" xmlns="http://www.w3.org/2000/svg" xmlns:xlink="http://www.w3.org/1999/xlink" x="0px" y="0px"
	 width="160px" height="68px" viewBox="0 0 160 68" enable-background="new 0 0 160 68" xml:space="preserve">
<path fill="#FFFFFF" d="M71.05,19.082v6.104c0,0.263-0.204,0.48-0.48,0.48c-0.429,0-1.44-0.425-3.501-0.425
	c-3.824,0-7.012,2.712-7.012,7.263v16.789c0,0.269-0.213,0.484-0.476,0.484h-6.327c-0.262,0-0.475-0.216-0.475-0.484V19.562
	c0-0.267,0.212-0.483,0.475-0.483h6.093c0.255,0,0.464,0.207,0.474,0.465l0.131,3.305h0.087c0.45-0.801,2.675-4.571,8.409-4.571
	c1.107,0,2.107,0.292,2.248,0.337C70.902,18.683,71.05,18.861,71.05,19.082 M123.654,19.708v29.898c0,0.27-0.219,0.485-0.492,0.485
	h-6.575c-0.271,0-0.492-0.217-0.492-0.485V19.708c0-0.268,0.224-0.485,0.492-0.485h6.575
	C123.436,19.223,123.654,19.44,123.654,19.708 M124.6,8.828c0,2.693-2.029,4.725-4.725,4.725c-2.693,0-4.725-2.032-4.725-4.725
	c0-2.695,2.031-4.725,4.725-4.725C122.57,4.103,124.6,6.134,124.6,8.828 M153.266,41.582c0,5.37-4.801,9.455-12.037,9.455
	c-6.459,0-11.086-3.05-11.715-3.506c-0.131-0.094-0.189-0.236-0.189-0.387c0-0.129,0.08-0.295,0.123-0.389l1.826-4.396
	c0.066-0.164,0.204-0.303,0.462-0.303c0.813,0,4.524,2.915,9.719,2.915c3.138,0,4.872-1.381,4.872-3.29
	c0-1.226-0.58-2.639-3.434-3.598l-3.46-1.158c-5.349-1.794-8.343-4.511-8.343-9.572c0-5.345,4.885-9.076,11.877-9.076
	c4.159,0,7.41,1.458,8.979,2.328c0.158,0.086,0.249,0.225,0.249,0.395c0,0.1-0.04,0.22-0.077,0.31l-1.867,4.502
	c-0.054,0.13-0.209,0.302-0.478,0.302c-0.704,0-3.038-1.804-7.194-1.804c-2.502,0-4.462,1.092-4.462,3.354
	c0,1.883,1.462,2.7,4.433,3.697c0,0,2.239,0.75,3.602,1.21C151.234,34.278,153.266,37.411,153.266,41.582 M93.555,18.501
	c-6.26,0-9.806,3.209-10.162,3.499h-0.077V5.846c0-0.267-0.22-0.483-0.485-0.483h-6.257c-0.269,0-0.484,0.216-0.484,0.483v28.888
	c0,9.797,7.056,16.619,16.694,16.619c9.518,0,16.696-7.063,16.696-16.432C109.48,25.054,101.962,18.501,93.555,18.501
	 M93.242,24.699c5.707,0,9.252,4.488,9.252,10.011c0,5.521-3.545,9.998-9.252,9.998s-9.235-4.477-9.235-9.998
	C84.007,29.187,87.535,24.699,93.242,24.699"/>
<path fill="#16A0DB" d="M50.43,12.808c0.092,0.088,0.145,0.208,0.145,0.333c0.002,0.127-0.05,0.248-0.142,0.337l-4.147,4.031
	c-0.097,0.094-0.206,0.138-0.349,0.138c-0.126,0-0.227-0.041-0.317-0.119c-4.483-3.916-10.332-6.074-16.466-6.074
	c-6.131,0-11.981,2.158-16.465,6.074c-0.091,0.079-0.188,0.119-0.315,0.119c-0.142,0-0.252-0.044-0.349-0.138l-4.148-4.031
	c-0.092-0.088-0.144-0.21-0.142-0.337c0-0.124,0.053-0.246,0.145-0.333c5.726-5.413,13.282-8.391,21.274-8.391
	C37.146,4.417,44.704,7.396,50.43,12.808 M50.43,56.506c0.092-0.087,0.145-0.208,0.145-0.334c0.002-0.126-0.05-0.244-0.142-0.333
	l-4.147-4.034c-0.097-0.092-0.206-0.137-0.349-0.137c-0.126,0-0.227,0.041-0.317,0.12c-4.483,3.915-10.332,6.073-16.466,6.073
	c-6.131,0-11.981-2.158-16.465-6.073c-0.09-0.079-0.188-0.12-0.315-0.12c-0.142,0-0.252,0.045-0.349,0.137l-4.148,4.033
	c-0.092,0.09-0.144,0.207-0.142,0.333c0,0.126,0.053,0.248,0.145,0.335c5.725,5.412,13.282,8.391,21.274,8.391
	C37.146,64.897,44.704,61.918,50.43,56.506"/>
<path fill="#FFFFFF" d="M29.149,18.277c-9.799,0-17.004,6.909-17.004,16.07c0,9.158,7.205,16.06,17.004,16.06
	c9.796,0,17.016-6.902,17.016-16.06C46.165,25.187,38.945,18.277,29.149,18.277L29.149,18.277z M28.853,44.393
	c-5.817,0-9.41-4.477-9.41-9.998c0-5.522,3.593-10.011,9.41-10.011c5.813,0,9.423,4.489,9.423,10.011
	C38.277,39.916,34.666,44.393,28.853,44.393z"/>
</svg>
